<svg xmlns="http://www.w3.org/2000/svg" xmlns:xlink="http://www.w3.org/1999/xlink" width="110" zoomAndPan="magnify" viewBox="0 0 82.5 41.25" height="55" preserveAspectRatio="xMidYMid meet" version="1.0"><defs><g/></defs><g fill="#000000" fill-opacity="1"><g transform="translate(10.563155, 21.484375)"><g><path d="M 1.59375 -0.671875 L 0.40625 -1.796875 L 1.59375 -2.921875 L 2.15625 -2.921875 L 0.96875 -1.796875 L 2.15625 -0.671875 Z M 1.59375 -0.671875 "/></g></g></g><g fill="#000000" fill-opacity="1"><g transform="translate(13.288621, 21.484375)"><g/></g></g><g fill="#000000" fill-opacity="1"><g transform="translate(14.599792, 21.484375)"><g><path d="M 0.46875 -2.921875 L 1.03125 -2.921875 L 2.21875 -1.796875 L 1.03125 -0.671875 L 0.46875 -0.671875 L 1.65625 -1.796875 Z M 0.46875 -2.921875 "/></g></g></g><g fill="#000000" fill-opacity="1"><g transform="translate(17.246686, 21.484375)"><g><path d="M 2.96875 -2.421875 C 2.875 -2.628906 2.734375 -2.785156 2.546875 -2.890625 C 2.367188 -3.003906 2.160156 -3.0625 1.921875 -3.0625 C 1.679688 -3.0625 1.46875 -3.003906 1.28125 -2.890625 C 1.09375 -2.785156 0.941406 -2.628906 0.828125 -2.421875 C 0.722656 -2.210938 0.671875 -1.976562 0.671875 -1.71875 C 0.671875 -1.445312 0.722656 -1.207031 0.828125 -1 C 0.941406 -0.800781 1.09375 -0.644531 1.28125 -0.53125 C 1.46875 -0.425781 1.679688 -0.375 1.921875 -0.375 C 2.253906 -0.375 2.53125 -0.472656 2.75 -0.671875 C 2.96875 -0.867188 3.09375 -1.140625 3.125 -1.484375 L 1.765625 -1.484375 L 1.765625 -1.84375 L 3.609375 -1.84375 L 3.609375 -1.5 C 3.578125 -1.21875 3.484375 -0.957031 3.328125 -0.71875 C 3.179688 -0.488281 2.984375 -0.304688 2.734375 -0.171875 C 2.492188 -0.0351562 2.222656 0.03125 1.921875 0.03125 C 1.609375 0.03125 1.320312 -0.0390625 1.0625 -0.1875 C 0.800781 -0.34375 0.59375 -0.550781 0.4375 -0.8125 C 0.289062 -1.082031 0.21875 -1.382812 0.21875 -1.71875 C 0.21875 -2.050781 0.289062 -2.347656 0.4375 -2.609375 C 0.59375 -2.878906 0.800781 -3.085938 1.0625 -3.234375 C 1.320312 -3.378906 1.609375 -3.453125 1.921875 -3.453125 C 2.285156 -3.453125 2.609375 -3.363281 2.890625 -3.1875 C 3.171875 -3.007812 3.375 -2.753906 3.5 -2.421875 Z M 2.96875 -2.421875 "/></g></g></g><g fill="#000000" fill-opacity="1"><g transform="translate(21.067245, 21.484375)"><g><path d="M 0.21875 -1.359375 C 0.21875 -1.628906 0.269531 -1.867188 0.375 -2.078125 C 0.488281 -2.285156 0.640625 -2.445312 0.828125 -2.5625 C 1.023438 -2.675781 1.242188 -2.734375 1.484375 -2.734375 C 1.722656 -2.734375 1.925781 -2.679688 2.09375 -2.578125 C 2.269531 -2.472656 2.398438 -2.347656 2.484375 -2.203125 L 2.484375 -2.6875 L 2.9375 -2.6875 L 2.9375 0 L 2.484375 0 L 2.484375 -0.5 C 2.398438 -0.34375 2.269531 -0.210938 2.09375 -0.109375 C 1.914062 -0.00390625 1.710938 0.046875 1.484375 0.046875 C 1.242188 0.046875 1.023438 -0.0078125 0.828125 -0.125 C 0.640625 -0.25 0.488281 -0.414062 0.375 -0.625 C 0.269531 -0.84375 0.21875 -1.085938 0.21875 -1.359375 Z M 2.484375 -1.34375 C 2.484375 -1.550781 2.441406 -1.726562 2.359375 -1.875 C 2.273438 -2.03125 2.164062 -2.144531 2.03125 -2.21875 C 1.894531 -2.300781 1.742188 -2.34375 1.578125 -2.34375 C 1.410156 -2.34375 1.253906 -2.300781 1.109375 -2.21875 C 0.972656 -2.144531 0.863281 -2.03125 0.78125 -1.875 C 0.707031 -1.726562 0.671875 -1.554688 0.671875 -1.359375 C 0.671875 -1.148438 0.707031 -0.96875 0.78125 -0.8125 C 0.863281 -0.664062 0.972656 -0.550781 1.109375 -0.46875 C 1.253906 -0.382812 1.410156 -0.34375 1.578125 -0.34375 C 1.742188 -0.34375 1.894531 -0.382812 2.03125 -0.46875 C 2.164062 -0.550781 2.273438 -0.664062 2.359375 -0.8125 C 2.441406 -0.96875 2.484375 -1.144531 2.484375 -1.34375 Z M 2.484375 -1.34375 "/></g></g></g><g fill="#000000" fill-opacity="1"><g transform="translate(24.386912, 21.484375)"><g><path d="M 0.828125 -2.1875 C 0.921875 -2.34375 1.050781 -2.472656 1.21875 -2.578125 C 1.394531 -2.679688 1.597656 -2.734375 1.828125 -2.734375 C 2.066406 -2.734375 2.28125 -2.675781 2.46875 -2.5625 C 2.664062 -2.445312 2.820312 -2.285156 2.9375 -2.078125 C 3.050781 -1.867188 3.109375 -1.628906 3.109375 -1.359375 C 3.109375 -1.085938 3.050781 -0.84375 2.9375 -0.625 C 2.820312 -0.414062 2.664062 -0.25 2.46875 -0.125 C 2.28125 -0.0078125 2.066406 0.046875 1.828125 0.046875 C 1.597656 0.046875 1.394531 -0.00390625 1.21875 -0.109375 C 1.039062 -0.210938 0.910156 -0.34375 0.828125 -0.5 L 0.828125 0 L 0.375 0 L 0.375 -3.625 L 0.828125 -3.625 Z M 2.65625 -1.359375 C 2.65625 -1.554688 2.613281 -1.726562 2.53125 -1.875 C 2.445312 -2.03125 2.332031 -2.144531 2.1875 -2.21875 C 2.050781 -2.300781 1.898438 -2.34375 1.734375 -2.34375 C 1.566406 -2.34375 1.414062 -2.300781 1.28125 -2.21875 C 1.144531 -2.144531 1.035156 -2.03125 0.953125 -1.875 C 0.867188 -1.726562 0.828125 -1.550781 0.828125 -1.34375 C 0.828125 -1.144531 0.867188 -0.96875 0.953125 -0.8125 C 1.035156 -0.664062 1.144531 -0.550781 1.28125 -0.46875 C 1.414062 -0.382812 1.566406 -0.34375 1.734375 -0.34375 C 1.898438 -0.34375 2.050781 -0.382812 2.1875 -0.46875 C 2.332031 -0.550781 2.445312 -0.664062 2.53125 -0.8125 C 2.613281 -0.96875 2.65625 -1.148438 2.65625 -1.359375 Z M 2.65625 -1.359375 "/></g></g></g><g fill="#000000" fill-opacity="1"><g transform="translate(27.706579, 21.484375)"><g><path d="M 0.828125 -2.25 C 0.898438 -2.40625 1.007812 -2.523438 1.15625 -2.609375 C 1.300781 -2.691406 1.476562 -2.734375 1.6875 -2.734375 L 1.6875 -2.28125 L 1.578125 -2.28125 C 1.078125 -2.28125 0.828125 -2.007812 0.828125 -1.46875 L 0.828125 0 L 0.375 0 L 0.375 -2.6875 L 0.828125 -2.6875 Z M 0.828125 -2.25 "/></g></g></g><g fill="#000000" fill-opacity="1"><g transform="translate(29.538287, 21.484375)"><g><path d="M 0.609375 -3.125 C 0.523438 -3.125 0.453125 -3.148438 0.390625 -3.203125 C 0.328125 -3.265625 0.296875 -3.335938 0.296875 -3.421875 C 0.296875 -3.515625 0.328125 -3.585938 0.390625 -3.640625 C 0.453125 -3.703125 0.523438 -3.734375 0.609375 -3.734375 C 0.691406 -3.734375 0.757812 -3.703125 0.8125 -3.640625 C 0.875 -3.585938 0.90625 -3.515625 0.90625 -3.421875 C 0.90625 -3.335938 0.875 -3.265625 0.8125 -3.203125 C 0.757812 -3.148438 0.691406 -3.125 0.609375 -3.125 Z M 0.828125 -2.6875 L 0.828125 0 L 0.375 0 L 0.375 -2.6875 Z M 0.828125 -2.6875 "/></g></g></g><g fill="#000000" fill-opacity="1"><g transform="translate(30.746333, 21.484375)"><g><path d="M 2.828125 -1.453125 C 2.828125 -1.359375 2.820312 -1.265625 2.8125 -1.171875 L 0.671875 -1.171875 C 0.679688 -0.910156 0.769531 -0.703125 0.9375 -0.546875 C 1.101562 -0.398438 1.304688 -0.328125 1.546875 -0.328125 C 1.734375 -0.328125 1.890625 -0.375 2.015625 -0.46875 C 2.148438 -0.5625 2.242188 -0.679688 2.296875 -0.828125 L 2.78125 -0.828125 C 2.707031 -0.566406 2.5625 -0.351562 2.34375 -0.1875 C 2.125 -0.03125 1.859375 0.046875 1.546875 0.046875 C 1.285156 0.046875 1.050781 -0.0078125 0.84375 -0.125 C 0.644531 -0.238281 0.488281 -0.398438 0.375 -0.609375 C 0.269531 -0.828125 0.21875 -1.070312 0.21875 -1.34375 C 0.21875 -1.625 0.269531 -1.867188 0.375 -2.078125 C 0.488281 -2.285156 0.644531 -2.445312 0.84375 -2.5625 C 1.039062 -2.675781 1.273438 -2.734375 1.546875 -2.734375 C 1.796875 -2.734375 2.019531 -2.675781 2.21875 -2.5625 C 2.414062 -2.457031 2.566406 -2.304688 2.671875 -2.109375 C 2.773438 -1.910156 2.828125 -1.691406 2.828125 -1.453125 Z M 2.375 -1.546875 C 2.375 -1.710938 2.332031 -1.851562 2.25 -1.96875 C 2.175781 -2.09375 2.070312 -2.1875 1.9375 -2.25 C 1.8125 -2.320312 1.671875 -2.359375 1.515625 -2.359375 C 1.296875 -2.359375 1.101562 -2.285156 0.9375 -2.140625 C 0.78125 -1.992188 0.691406 -1.796875 0.671875 -1.546875 Z M 2.375 -1.546875 "/></g></g></g><g fill="#000000" fill-opacity="1"><g transform="translate(33.790995, 21.484375)"><g><path d="M 0.828125 -3.625 L 0.828125 0 L 0.375 0 L 0.375 -3.625 Z M 0.828125 -3.625 "/></g></g></g><g fill="#000000" fill-opacity="1"><g transform="translate(36.310212, 21.484375)"><g><path d="M 0.21875 -1.359375 C 0.21875 -1.628906 0.269531 -1.867188 0.375 -2.078125 C 0.488281 -2.285156 0.640625 -2.445312 0.828125 -2.5625 C 1.023438 -2.675781 1.242188 -2.734375 1.484375 -2.734375 C 1.703125 -2.734375 1.898438 -2.679688 2.078125 -2.578125 C 2.253906 -2.484375 2.390625 -2.359375 2.484375 -2.203125 L 2.484375 -3.625 L 2.9375 -3.625 L 2.9375 0 L 2.484375 0 L 2.484375 -0.5 C 2.398438 -0.34375 2.269531 -0.210938 2.09375 -0.109375 C 1.914062 -0.00390625 1.710938 0.046875 1.484375 0.046875 C 1.242188 0.046875 1.023438 -0.0078125 0.828125 -0.125 C 0.640625 -0.25 0.488281 -0.414062 0.375 -0.625 C 0.269531 -0.84375 0.21875 -1.085938 0.21875 -1.359375 Z M 2.484375 -1.34375 C 2.484375 -1.550781 2.441406 -1.726562 2.359375 -1.875 C 2.273438 -2.03125 2.164062 -2.144531 2.03125 -2.21875 C 1.894531 -2.300781 1.742188 -2.34375 1.578125 -2.34375 C 1.410156 -2.34375 1.253906 -2.300781 1.109375 -2.21875 C 0.972656 -2.144531 0.863281 -2.03125 0.78125 -1.875 C 0.707031 -1.726562 0.671875 -1.554688 0.671875 -1.359375 C 0.671875 -1.148438 0.707031 -0.96875 0.78125 -0.8125 C 0.863281 -0.664062 0.972656 -0.550781 1.109375 -0.46875 C 1.253906 -0.382812 1.410156 -0.34375 1.578125 -0.34375 C 1.742188 -0.34375 1.894531 -0.382812 2.03125 -0.46875 C 2.164062 -0.550781 2.273438 -0.664062 2.359375 -0.8125 C 2.441406 -0.96875 2.484375 -1.144531 2.484375 -1.34375 Z M 2.484375 -1.34375 "/></g></g></g><g fill="#000000" fill-opacity="1"><g transform="translate(39.629879, 21.484375)"><g><path d="M 2.828125 -1.453125 C 2.828125 -1.359375 2.820312 -1.265625 2.8125 -1.171875 L 0.671875 -1.171875 C 0.679688 -0.910156 0.769531 -0.703125 0.9375 -0.546875 C 1.101562 -0.398438 1.304688 -0.328125 1.546875 -0.328125 C 1.734375 -0.328125 1.890625 -0.375 2.015625 -0.46875 C 2.148438 -0.5625 2.242188 -0.679688 2.296875 -0.828125 L 2.78125 -0.828125 C 2.707031 -0.566406 2.5625 -0.351562 2.34375 -0.1875 C 2.125 -0.03125 1.859375 0.046875 1.546875 0.046875 C 1.285156 0.046875 1.050781 -0.0078125 0.84375 -0.125 C 0.644531 -0.238281 0.488281 -0.398438 0.375 -0.609375 C 0.269531 -0.828125 0.21875 -1.070312 0.21875 -1.34375 C 0.21875 -1.625 0.269531 -1.867188 0.375 -2.078125 C 0.488281 -2.285156 0.644531 -2.445312 0.84375 -2.5625 C 1.039062 -2.675781 1.273438 -2.734375 1.546875 -2.734375 C 1.796875 -2.734375 2.019531 -2.675781 2.21875 -2.5625 C 2.414062 -2.457031 2.566406 -2.304688 2.671875 -2.109375 C 2.773438 -1.910156 2.828125 -1.691406 2.828125 -1.453125 Z M 2.375 -1.546875 C 2.375 -1.710938 2.332031 -1.851562 2.25 -1.96875 C 2.175781 -2.09375 2.070312 -2.1875 1.9375 -2.25 C 1.8125 -2.320312 1.671875 -2.359375 1.515625 -2.359375 C 1.296875 -2.359375 1.101562 -2.285156 0.9375 -2.140625 C 0.78125 -1.992188 0.691406 -1.796875 0.671875 -1.546875 Z M 2.375 -1.546875 "/></g></g></g><g fill="#000000" fill-opacity="1"><g transform="translate(42.67454, 21.484375)"><g/></g></g><g fill="#000000" fill-opacity="1"><g transform="translate(43.985711, 21.484375)"><g><path d="M 1.921875 0.03125 C 1.609375 0.03125 1.320312 -0.0390625 1.0625 -0.1875 C 0.800781 -0.332031 0.59375 -0.539062 0.4375 -0.8125 C 0.289062 -1.082031 0.21875 -1.382812 0.21875 -1.71875 C 0.21875 -2.050781 0.289062 -2.347656 0.4375 -2.609375 C 0.59375 -2.878906 0.800781 -3.085938 1.0625 -3.234375 C 1.320312 -3.378906 1.609375 -3.453125 1.921875 -3.453125 C 2.242188 -3.453125 2.535156 -3.378906 2.796875 -3.234375 C 3.054688 -3.085938 3.257812 -2.878906 3.40625 -2.609375 C 3.5625 -2.347656 3.640625 -2.050781 3.640625 -1.71875 C 3.640625 -1.375 3.5625 -1.066406 3.40625 -0.796875 C 3.257812 -0.535156 3.054688 -0.332031 2.796875 -0.1875 C 2.535156 -0.0390625 2.242188 0.03125 1.921875 0.03125 Z M 1.921875 -0.359375 C 2.160156 -0.359375 2.375 -0.410156 2.5625 -0.515625 C 2.757812 -0.628906 2.910156 -0.789062 3.015625 -1 C 3.128906 -1.207031 3.1875 -1.445312 3.1875 -1.71875 C 3.1875 -1.988281 3.128906 -2.222656 3.015625 -2.421875 C 2.910156 -2.628906 2.765625 -2.789062 2.578125 -2.90625 C 2.390625 -3.019531 2.171875 -3.078125 1.921875 -3.078125 C 1.679688 -3.078125 1.46875 -3.019531 1.28125 -2.90625 C 1.09375 -2.789062 0.941406 -2.628906 0.828125 -2.421875 C 0.722656 -2.222656 0.671875 -1.988281 0.671875 -1.71875 C 0.671875 -1.445312 0.722656 -1.207031 0.828125 -1 C 0.941406 -0.789062 1.09375 -0.628906 1.28125 -0.515625 C 1.46875 -0.410156 1.679688 -0.359375 1.921875 -0.359375 Z M 1.921875 -0.359375 "/></g></g></g><g fill="#000000" fill-opacity="1"><g transform="translate(47.84556, 21.484375)"><g><path d="M 0.828125 -3.625 L 0.828125 0 L 0.375 0 L 0.375 -3.625 Z M 0.828125 -3.625 "/></g></g></g><g fill="#000000" fill-opacity="1"><g transform="translate(49.053606, 21.484375)"><g><path d="M 0.609375 -3.125 C 0.523438 -3.125 0.453125 -3.148438 0.390625 -3.203125 C 0.328125 -3.265625 0.296875 -3.335938 0.296875 -3.421875 C 0.296875 -3.515625 0.328125 -3.585938 0.390625 -3.640625 C 0.453125 -3.703125 0.523438 -3.734375 0.609375 -3.734375 C 0.691406 -3.734375 0.757812 -3.703125 0.8125 -3.640625 C 0.875 -3.585938 0.90625 -3.515625 0.90625 -3.421875 C 0.90625 -3.335938 0.875 -3.265625 0.8125 -3.203125 C 0.757812 -3.148438 0.691406 -3.125 0.609375 -3.125 Z M 0.828125 -2.6875 L 0.828125 0 L 0.375 0 L 0.375 -2.6875 Z M 0.828125 -2.6875 "/></g></g></g><g fill="#000000" fill-opacity="1"><g transform="translate(50.261652, 21.484375)"><g><path d="M 1.375 -0.40625 L 2.21875 -2.6875 L 2.6875 -2.6875 L 1.640625 0 L 1.109375 0 L 0.0625 -2.6875 L 0.546875 -2.6875 Z M 1.375 -0.40625 "/></g></g></g><g fill="#000000" fill-opacity="1"><g transform="translate(53.016579, 21.484375)"><g><path d="M 2.828125 -1.453125 C 2.828125 -1.359375 2.820312 -1.265625 2.8125 -1.171875 L 0.671875 -1.171875 C 0.679688 -0.910156 0.769531 -0.703125 0.9375 -0.546875 C 1.101562 -0.398438 1.304688 -0.328125 1.546875 -0.328125 C 1.734375 -0.328125 1.890625 -0.375 2.015625 -0.46875 C 2.148438 -0.5625 2.242188 -0.679688 2.296875 -0.828125 L 2.78125 -0.828125 C 2.707031 -0.566406 2.5625 -0.351562 2.34375 -0.1875 C 2.125 -0.03125 1.859375 0.046875 1.546875 0.046875 C 1.285156 0.046875 1.050781 -0.0078125 0.84375 -0.125 C 0.644531 -0.238281 0.488281 -0.398438 0.375 -0.609375 C 0.269531 -0.828125 0.21875 -1.070312 0.21875 -1.34375 C 0.21875 -1.625 0.269531 -1.867188 0.375 -2.078125 C 0.488281 -2.285156 0.644531 -2.445312 0.84375 -2.5625 C 1.039062 -2.675781 1.273438 -2.734375 1.546875 -2.734375 C 1.796875 -2.734375 2.019531 -2.675781 2.21875 -2.5625 C 2.414062 -2.457031 2.566406 -2.304688 2.671875 -2.109375 C 2.773438 -1.910156 2.828125 -1.691406 2.828125 -1.453125 Z M 2.375 -1.546875 C 2.375 -1.710938 2.332031 -1.851562 2.25 -1.96875 C 2.175781 -2.09375 2.070312 -2.1875 1.9375 -2.25 C 1.8125 -2.320312 1.671875 -2.359375 1.515625 -2.359375 C 1.296875 -2.359375 1.101562 -2.285156 0.9375 -2.140625 C 0.78125 -1.992188 0.691406 -1.796875 0.671875 -1.546875 Z M 2.375 -1.546875 "/></g></g></g><g fill="#000000" fill-opacity="1"><g transform="translate(56.061241, 21.484375)"><g><path d="M 0.609375 -3.125 C 0.523438 -3.125 0.453125 -3.148438 0.390625 -3.203125 C 0.328125 -3.265625 0.296875 -3.335938 0.296875 -3.421875 C 0.296875 -3.515625 0.328125 -3.585938 0.390625 -3.640625 C 0.453125 -3.703125 0.523438 -3.734375 0.609375 -3.734375 C 0.691406 -3.734375 0.757812 -3.703125 0.8125 -3.640625 C 0.875 -3.585938 0.90625 -3.515625 0.90625 -3.421875 C 0.90625 -3.335938 0.875 -3.265625 0.8125 -3.203125 C 0.757812 -3.148438 0.691406 -3.125 0.609375 -3.125 Z M 0.828125 -2.6875 L 0.828125 0 L 0.375 0 L 0.375 -2.6875 Z M 0.828125 -2.6875 "/></g></g></g><g fill="#000000" fill-opacity="1"><g transform="translate(57.269287, 21.484375)"><g><path d="M 0.828125 -2.25 C 0.898438 -2.40625 1.007812 -2.523438 1.15625 -2.609375 C 1.300781 -2.691406 1.476562 -2.734375 1.6875 -2.734375 L 1.6875 -2.28125 L 1.578125 -2.28125 C 1.078125 -2.28125 0.828125 -2.007812 0.828125 -1.46875 L 0.828125 0 L 0.375 0 L 0.375 -2.6875 L 0.828125 -2.6875 Z M 0.828125 -2.25 "/></g></g></g><g fill="#000000" fill-opacity="1"><g transform="translate(59.100994, 21.484375)"><g><path d="M 0.21875 -1.359375 C 0.21875 -1.628906 0.269531 -1.867188 0.375 -2.078125 C 0.488281 -2.285156 0.640625 -2.445312 0.828125 -2.5625 C 1.023438 -2.675781 1.242188 -2.734375 1.484375 -2.734375 C 1.722656 -2.734375 1.925781 -2.679688 2.09375 -2.578125 C 2.269531 -2.472656 2.398438 -2.347656 2.484375 -2.203125 L 2.484375 -2.6875 L 2.9375 -2.6875 L 2.9375 0 L 2.484375 0 L 2.484375 -0.5 C 2.398438 -0.34375 2.269531 -0.210938 2.09375 -0.109375 C 1.914062 -0.00390625 1.710938 0.046875 1.484375 0.046875 C 1.242188 0.046875 1.023438 -0.0078125 0.828125 -0.125 C 0.640625 -0.25 0.488281 -0.414062 0.375 -0.625 C 0.269531 -0.84375 0.21875 -1.085938 0.21875 -1.359375 Z M 2.484375 -1.34375 C 2.484375 -1.550781 2.441406 -1.726562 2.359375 -1.875 C 2.273438 -2.03125 2.164062 -2.144531 2.03125 -2.21875 C 1.894531 -2.300781 1.742188 -2.34375 1.578125 -2.34375 C 1.410156 -2.34375 1.253906 -2.300781 1.109375 -2.21875 C 0.972656 -2.144531 0.863281 -2.03125 0.78125 -1.875 C 0.707031 -1.726562 0.671875 -1.554688 0.671875 -1.359375 C 0.671875 -1.148438 0.707031 -0.96875 0.78125 -0.8125 C 0.863281 -0.664062 0.972656 -0.550781 1.109375 -0.46875 C 1.253906 -0.382812 1.410156 -0.34375 1.578125 -0.34375 C 1.742188 -0.34375 1.894531 -0.382812 2.03125 -0.46875 C 2.164062 -0.550781 2.273438 -0.664062 2.359375 -0.8125 C 2.441406 -0.96875 2.484375 -1.144531 2.484375 -1.34375 Z M 2.484375 -1.34375 "/></g></g></g><g fill="#000000" fill-opacity="1"><g transform="translate(62.420661, 21.484375)"><g/></g></g><g fill="#000000" fill-opacity="1"><g transform="translate(63.731832, 21.484375)"><g><path d="M 1.59375 -0.671875 L 0.40625 -1.796875 L 1.59375 -2.921875 L 2.15625 -2.921875 L 0.96875 -1.796875 L 2.15625 -0.671875 Z M 1.59375 -0.671875 "/></g></g></g><g fill="#000000" fill-opacity="1"><g transform="translate(66.457298, 21.484375)"><g><path d="M 2.046875 -4.625 L 0.703125 0.828125 L 0.265625 0.828125 L 1.59375 -4.625 Z M 2.046875 -4.625 "/></g></g></g><g fill="#000000" fill-opacity="1"><g transform="translate(68.794812, 21.484375)"><g><path d="M 0.46875 -2.921875 L 1.03125 -2.921875 L 2.21875 -1.796875 L 1.03125 -0.671875 L 0.46875 -0.671875 L 1.65625 -1.796875 Z M 0.46875 -2.921875 "/></g></g></g></svg>