<svg xmlns="http://www.w3.org/2000/svg" xmlns:xlink="http://www.w3.org/1999/xlink" width="80" zoomAndPan="magnify" viewBox="0 0 60 30.000001" height="40" preserveAspectRatio="xMidYMid meet" version="1.0"><defs><g/></defs><g fill="#000000" fill-opacity="1"><g transform="translate(9.003515, 15.362906)"><g><path d="M 1.109375 -0.46875 L 0.28125 -1.234375 L 1.109375 -2.015625 L 1.484375 -2.015625 L 0.671875 -1.234375 L 1.484375 -0.46875 Z M 1.109375 -0.46875 "/></g></g></g><g fill="#000000" fill-opacity="1"><g transform="translate(10.883369, 15.362906)"><g/></g></g><g fill="#000000" fill-opacity="1"><g transform="translate(11.787731, 15.362906)"><g><path d="M 0.3125 -2.015625 L 0.703125 -2.015625 L 1.53125 -1.234375 L 0.703125 -0.46875 L 0.3125 -0.46875 L 1.140625 -1.234375 Z M 0.3125 -2.015625 "/></g></g></g><g fill="#000000" fill-opacity="1"><g transform="translate(13.613391, 15.362906)"><g><path d="M 2.046875 -1.671875 C 1.984375 -1.816406 1.890625 -1.925781 1.765625 -2 C 1.640625 -2.070312 1.492188 -2.109375 1.328125 -2.109375 C 1.160156 -2.109375 1.007812 -2.070312 0.875 -2 C 0.75 -1.925781 0.648438 -1.816406 0.578125 -1.671875 C 0.503906 -1.535156 0.46875 -1.375 0.46875 -1.1875 C 0.46875 -1 0.503906 -0.832031 0.578125 -0.6875 C 0.648438 -0.550781 0.75 -0.441406 0.875 -0.359375 C 1.007812 -0.285156 1.160156 -0.25 1.328125 -0.25 C 1.554688 -0.25 1.742188 -0.316406 1.890625 -0.453125 C 2.046875 -0.597656 2.132812 -0.789062 2.15625 -1.03125 L 1.21875 -1.03125 L 1.21875 -1.28125 L 2.484375 -1.28125 L 2.484375 -1.03125 C 2.472656 -0.84375 2.414062 -0.664062 2.3125 -0.5 C 2.207031 -0.34375 2.066406 -0.21875 1.890625 -0.125 C 1.722656 -0.03125 1.535156 0.015625 1.328125 0.015625 C 1.109375 0.015625 0.910156 -0.03125 0.734375 -0.125 C 0.554688 -0.226562 0.410156 -0.375 0.296875 -0.5625 C 0.191406 -0.75 0.140625 -0.957031 0.140625 -1.1875 C 0.140625 -1.414062 0.191406 -1.617188 0.296875 -1.796875 C 0.410156 -1.984375 0.554688 -2.128906 0.734375 -2.234375 C 0.910156 -2.335938 1.109375 -2.390625 1.328125 -2.390625 C 1.578125 -2.390625 1.796875 -2.328125 1.984375 -2.203125 C 2.179688 -2.078125 2.328125 -1.898438 2.421875 -1.671875 Z M 2.046875 -1.671875 "/></g></g></g><g fill="#000000" fill-opacity="1"><g transform="translate(16.24857, 15.362906)"><g><path d="M 0.140625 -0.9375 C 0.140625 -1.125 0.175781 -1.289062 0.25 -1.4375 C 0.332031 -1.582031 0.441406 -1.691406 0.578125 -1.765625 C 0.710938 -1.847656 0.863281 -1.890625 1.03125 -1.890625 C 1.1875 -1.890625 1.320312 -1.851562 1.4375 -1.78125 C 1.5625 -1.707031 1.65625 -1.617188 1.71875 -1.515625 L 1.71875 -1.859375 L 2.03125 -1.859375 L 2.03125 0 L 1.71875 0 L 1.71875 -0.34375 C 1.65625 -0.238281 1.5625 -0.148438 1.4375 -0.078125 C 1.320312 -0.00390625 1.1875 0.03125 1.03125 0.03125 C 0.863281 0.03125 0.710938 -0.0078125 0.578125 -0.09375 C 0.441406 -0.175781 0.332031 -0.289062 0.25 -0.4375 C 0.175781 -0.582031 0.140625 -0.75 0.140625 -0.9375 Z M 1.71875 -0.9375 C 1.71875 -1.070312 1.6875 -1.191406 1.625 -1.296875 C 1.570312 -1.398438 1.5 -1.476562 1.40625 -1.53125 C 1.3125 -1.59375 1.207031 -1.625 1.09375 -1.625 C 0.976562 -1.625 0.867188 -1.59375 0.765625 -1.53125 C 0.671875 -1.476562 0.597656 -1.398438 0.546875 -1.296875 C 0.492188 -1.191406 0.46875 -1.070312 0.46875 -0.9375 C 0.46875 -0.789062 0.492188 -0.664062 0.546875 -0.5625 C 0.597656 -0.457031 0.671875 -0.375 0.765625 -0.3125 C 0.867188 -0.257812 0.976562 -0.234375 1.09375 -0.234375 C 1.207031 -0.234375 1.3125 -0.257812 1.40625 -0.3125 C 1.5 -0.375 1.570312 -0.457031 1.625 -0.5625 C 1.6875 -0.664062 1.71875 -0.789062 1.71875 -0.9375 Z M 1.71875 -0.9375 "/></g></g></g><g fill="#000000" fill-opacity="1"><g transform="translate(18.538266, 15.362906)"><g><path d="M 0.5625 -1.515625 C 0.632812 -1.617188 0.726562 -1.707031 0.84375 -1.78125 C 0.96875 -1.851562 1.109375 -1.890625 1.265625 -1.890625 C 1.429688 -1.890625 1.582031 -1.847656 1.71875 -1.765625 C 1.851562 -1.691406 1.957031 -1.582031 2.03125 -1.4375 C 2.101562 -1.289062 2.140625 -1.125 2.140625 -0.9375 C 2.140625 -0.75 2.101562 -0.582031 2.03125 -0.4375 C 1.957031 -0.289062 1.851562 -0.175781 1.71875 -0.09375 C 1.582031 -0.0078125 1.429688 0.03125 1.265625 0.03125 C 1.109375 0.03125 0.96875 -0.00390625 0.84375 -0.078125 C 0.71875 -0.148438 0.625 -0.238281 0.5625 -0.34375 L 0.5625 0 L 0.265625 0 L 0.265625 -2.515625 L 0.5625 -2.515625 Z M 1.828125 -0.9375 C 1.828125 -1.070312 1.796875 -1.191406 1.734375 -1.296875 C 1.679688 -1.398438 1.609375 -1.476562 1.515625 -1.53125 C 1.421875 -1.59375 1.316406 -1.625 1.203125 -1.625 C 1.085938 -1.625 0.984375 -1.59375 0.890625 -1.53125 C 0.796875 -1.476562 0.71875 -1.398438 0.65625 -1.296875 C 0.59375 -1.191406 0.5625 -1.070312 0.5625 -0.9375 C 0.5625 -0.789062 0.59375 -0.664062 0.65625 -0.5625 C 0.71875 -0.457031 0.796875 -0.375 0.890625 -0.3125 C 0.984375 -0.257812 1.085938 -0.234375 1.203125 -0.234375 C 1.316406 -0.234375 1.421875 -0.257812 1.515625 -0.3125 C 1.609375 -0.375 1.679688 -0.457031 1.734375 -0.5625 C 1.796875 -0.664062 1.828125 -0.789062 1.828125 -0.9375 Z M 1.828125 -0.9375 "/></g></g></g><g fill="#000000" fill-opacity="1"><g transform="translate(20.827962, 15.362906)"><g><path d="M 0.5625 -1.5625 C 0.625 -1.664062 0.703125 -1.742188 0.796875 -1.796875 C 0.898438 -1.859375 1.023438 -1.890625 1.171875 -1.890625 L 1.171875 -1.578125 L 1.09375 -1.578125 C 0.738281 -1.578125 0.5625 -1.390625 0.5625 -1.015625 L 0.5625 0 L 0.265625 0 L 0.265625 -1.859375 L 0.5625 -1.859375 Z M 0.5625 -1.5625 "/></g></g></g><g fill="#000000" fill-opacity="1"><g transform="translate(22.091357, 15.362906)"><g><path d="M 0.421875 -2.15625 C 0.359375 -2.15625 0.304688 -2.175781 0.265625 -2.21875 C 0.222656 -2.257812 0.203125 -2.3125 0.203125 -2.375 C 0.203125 -2.425781 0.222656 -2.472656 0.265625 -2.515625 C 0.304688 -2.554688 0.359375 -2.578125 0.421875 -2.578125 C 0.472656 -2.578125 0.519531 -2.554688 0.5625 -2.515625 C 0.601562 -2.472656 0.625 -2.425781 0.625 -2.375 C 0.625 -2.3125 0.601562 -2.257812 0.5625 -2.21875 C 0.519531 -2.175781 0.472656 -2.15625 0.421875 -2.15625 Z M 0.5625 -1.859375 L 0.5625 0 L 0.265625 0 L 0.265625 -1.859375 Z M 0.5625 -1.859375 "/></g></g></g><g fill="#000000" fill-opacity="1"><g transform="translate(22.924591, 15.362906)"><g><path d="M 1.953125 -1 C 1.953125 -0.9375 1.953125 -0.875 1.953125 -0.8125 L 0.46875 -0.8125 C 0.476562 -0.632812 0.539062 -0.492188 0.65625 -0.390625 C 0.769531 -0.285156 0.90625 -0.234375 1.0625 -0.234375 C 1.195312 -0.234375 1.304688 -0.265625 1.390625 -0.328125 C 1.484375 -0.390625 1.550781 -0.472656 1.59375 -0.578125 L 1.921875 -0.578125 C 1.867188 -0.398438 1.765625 -0.253906 1.609375 -0.140625 C 1.460938 -0.0234375 1.28125 0.03125 1.0625 0.03125 C 0.882812 0.03125 0.726562 -0.00390625 0.59375 -0.078125 C 0.457031 -0.160156 0.347656 -0.273438 0.265625 -0.421875 C 0.179688 -0.566406 0.140625 -0.738281 0.140625 -0.9375 C 0.140625 -1.125 0.175781 -1.289062 0.25 -1.4375 C 0.332031 -1.582031 0.441406 -1.691406 0.578125 -1.765625 C 0.722656 -1.847656 0.882812 -1.890625 1.0625 -1.890625 C 1.238281 -1.890625 1.394531 -1.847656 1.53125 -1.765625 C 1.664062 -1.691406 1.769531 -1.585938 1.84375 -1.453125 C 1.914062 -1.316406 1.953125 -1.164062 1.953125 -1 Z M 1.640625 -1.0625 C 1.640625 -1.175781 1.613281 -1.273438 1.5625 -1.359375 C 1.507812 -1.453125 1.4375 -1.519531 1.34375 -1.5625 C 1.257812 -1.601562 1.160156 -1.625 1.046875 -1.625 C 0.890625 -1.625 0.753906 -1.570312 0.640625 -1.46875 C 0.535156 -1.375 0.476562 -1.238281 0.46875 -1.0625 Z M 1.640625 -1.0625 "/></g></g></g><g fill="#000000" fill-opacity="1"><g transform="translate(25.024606, 15.362906)"><g><path d="M 0.5625 -2.515625 L 0.5625 0 L 0.265625 0 L 0.265625 -2.515625 Z M 0.5625 -2.515625 "/></g></g></g><g fill="#000000" fill-opacity="1"><g transform="translate(25.857839, 15.362906)"><g/></g></g><g fill="#000000" fill-opacity="1"><g transform="translate(26.762202, 15.362906)"><g><path d="M 0.140625 -0.9375 C 0.140625 -1.125 0.175781 -1.289062 0.25 -1.4375 C 0.332031 -1.582031 0.441406 -1.691406 0.578125 -1.765625 C 0.710938 -1.847656 0.863281 -1.890625 1.03125 -1.890625 C 1.175781 -1.890625 1.3125 -1.851562 1.4375 -1.78125 C 1.5625 -1.71875 1.65625 -1.632812 1.71875 -1.53125 L 1.71875 -2.515625 L 2.03125 -2.515625 L 2.03125 0 L 1.71875 0 L 1.71875 -0.34375 C 1.65625 -0.238281 1.5625 -0.148438 1.4375 -0.078125 C 1.320312 -0.00390625 1.1875 0.03125 1.03125 0.03125 C 0.863281 0.03125 0.710938 -0.0078125 0.578125 -0.09375 C 0.441406 -0.175781 0.332031 -0.289062 0.25 -0.4375 C 0.175781 -0.582031 0.140625 -0.75 0.140625 -0.9375 Z M 1.71875 -0.9375 C 1.71875 -1.070312 1.6875 -1.191406 1.625 -1.296875 C 1.570312 -1.398438 1.5 -1.476562 1.40625 -1.53125 C 1.3125 -1.59375 1.207031 -1.625 1.09375 -1.625 C 0.976562 -1.625 0.867188 -1.59375 0.765625 -1.53125 C 0.671875 -1.476562 0.597656 -1.398438 0.546875 -1.296875 C 0.492188 -1.191406 0.46875 -1.070312 0.46875 -0.9375 C 0.46875 -0.789062 0.492188 -0.664062 0.546875 -0.5625 C 0.597656 -0.457031 0.671875 -0.375 0.765625 -0.3125 C 0.867188 -0.257812 0.976562 -0.234375 1.09375 -0.234375 C 1.207031 -0.234375 1.3125 -0.257812 1.40625 -0.3125 C 1.5 -0.375 1.570312 -0.457031 1.625 -0.5625 C 1.6875 -0.664062 1.71875 -0.789062 1.71875 -0.9375 Z M 1.71875 -0.9375 "/></g></g></g><g fill="#000000" fill-opacity="1"><g transform="translate(29.051897, 15.362906)"><g><path d="M 1.953125 -1 C 1.953125 -0.9375 1.953125 -0.875 1.953125 -0.8125 L 0.46875 -0.8125 C 0.476562 -0.632812 0.539062 -0.492188 0.65625 -0.390625 C 0.769531 -0.285156 0.90625 -0.234375 1.0625 -0.234375 C 1.195312 -0.234375 1.304688 -0.265625 1.390625 -0.328125 C 1.484375 -0.390625 1.550781 -0.472656 1.59375 -0.578125 L 1.921875 -0.578125 C 1.867188 -0.398438 1.765625 -0.253906 1.609375 -0.140625 C 1.460938 -0.0234375 1.28125 0.03125 1.0625 0.03125 C 0.882812 0.03125 0.726562 -0.00390625 0.59375 -0.078125 C 0.457031 -0.160156 0.347656 -0.273438 0.265625 -0.421875 C 0.179688 -0.566406 0.140625 -0.738281 0.140625 -0.9375 C 0.140625 -1.125 0.175781 -1.289062 0.25 -1.4375 C 0.332031 -1.582031 0.441406 -1.691406 0.578125 -1.765625 C 0.722656 -1.847656 0.882812 -1.890625 1.0625 -1.890625 C 1.238281 -1.890625 1.394531 -1.847656 1.53125 -1.765625 C 1.664062 -1.691406 1.769531 -1.585938 1.84375 -1.453125 C 1.914062 -1.316406 1.953125 -1.164062 1.953125 -1 Z M 1.640625 -1.0625 C 1.640625 -1.175781 1.613281 -1.273438 1.5625 -1.359375 C 1.507812 -1.453125 1.4375 -1.519531 1.34375 -1.5625 C 1.257812 -1.601562 1.160156 -1.625 1.046875 -1.625 C 0.890625 -1.625 0.753906 -1.570312 0.640625 -1.46875 C 0.535156 -1.375 0.476562 -1.238281 0.46875 -1.0625 Z M 1.640625 -1.0625 "/></g></g></g><g fill="#000000" fill-opacity="1"><g transform="translate(31.151912, 15.362906)"><g/></g></g><g fill="#000000" fill-opacity="1"><g transform="translate(32.056274, 15.362906)"><g><path d="M 1.328125 0.03125 C 1.109375 0.03125 0.910156 -0.0195312 0.734375 -0.125 C 0.554688 -0.226562 0.410156 -0.375 0.296875 -0.5625 C 0.191406 -0.75 0.140625 -0.957031 0.140625 -1.1875 C 0.140625 -1.414062 0.191406 -1.617188 0.296875 -1.796875 C 0.410156 -1.984375 0.554688 -2.128906 0.734375 -2.234375 C 0.910156 -2.335938 1.109375 -2.390625 1.328125 -2.390625 C 1.554688 -2.390625 1.757812 -2.335938 1.9375 -2.234375 C 2.113281 -2.128906 2.253906 -1.984375 2.359375 -1.796875 C 2.460938 -1.617188 2.515625 -1.414062 2.515625 -1.1875 C 2.515625 -0.945312 2.460938 -0.734375 2.359375 -0.546875 C 2.253906 -0.367188 2.113281 -0.226562 1.9375 -0.125 C 1.757812 -0.0195312 1.554688 0.03125 1.328125 0.03125 Z M 1.328125 -0.25 C 1.492188 -0.25 1.644531 -0.285156 1.78125 -0.359375 C 1.914062 -0.429688 2.019531 -0.539062 2.09375 -0.6875 C 2.164062 -0.832031 2.203125 -1 2.203125 -1.1875 C 2.203125 -1.375 2.164062 -1.535156 2.09375 -1.671875 C 2.019531 -1.816406 1.914062 -1.925781 1.78125 -2 C 1.644531 -2.082031 1.492188 -2.125 1.328125 -2.125 C 1.160156 -2.125 1.007812 -2.082031 0.875 -2 C 0.75 -1.925781 0.648438 -1.816406 0.578125 -1.671875 C 0.503906 -1.535156 0.46875 -1.375 0.46875 -1.1875 C 0.46875 -1 0.503906 -0.832031 0.578125 -0.6875 C 0.648438 -0.539062 0.75 -0.429688 0.875 -0.359375 C 1.007812 -0.285156 1.160156 -0.25 1.328125 -0.25 Z M 1.328125 -0.25 "/></g></g></g><g fill="#000000" fill-opacity="1"><g transform="translate(34.718553, 15.362906)"><g><path d="M 0.5625 -2.515625 L 0.5625 0 L 0.265625 0 L 0.265625 -2.515625 Z M 0.5625 -2.515625 "/></g></g></g><g fill="#000000" fill-opacity="1"><g transform="translate(35.551787, 15.362906)"><g><path d="M 0.421875 -2.15625 C 0.359375 -2.15625 0.304688 -2.175781 0.265625 -2.21875 C 0.222656 -2.257812 0.203125 -2.3125 0.203125 -2.375 C 0.203125 -2.425781 0.222656 -2.472656 0.265625 -2.515625 C 0.304688 -2.554688 0.359375 -2.578125 0.421875 -2.578125 C 0.472656 -2.578125 0.519531 -2.554688 0.5625 -2.515625 C 0.601562 -2.472656 0.625 -2.425781 0.625 -2.375 C 0.625 -2.3125 0.601562 -2.257812 0.5625 -2.21875 C 0.519531 -2.175781 0.472656 -2.15625 0.421875 -2.15625 Z M 0.5625 -1.859375 L 0.5625 0 L 0.265625 0 L 0.265625 -1.859375 Z M 0.5625 -1.859375 "/></g></g></g><g fill="#000000" fill-opacity="1"><g transform="translate(36.38502, 15.362906)"><g><path d="M 0.953125 -0.28125 L 1.53125 -1.859375 L 1.859375 -1.859375 L 1.125 0 L 0.765625 0 L 0.046875 -1.859375 L 0.375 -1.859375 Z M 0.953125 -0.28125 "/></g></g></g><g fill="#000000" fill-opacity="1"><g transform="translate(38.285194, 15.362906)"><g><path d="M 1.953125 -1 C 1.953125 -0.9375 1.953125 -0.875 1.953125 -0.8125 L 0.46875 -0.8125 C 0.476562 -0.632812 0.539062 -0.492188 0.65625 -0.390625 C 0.769531 -0.285156 0.90625 -0.234375 1.0625 -0.234375 C 1.195312 -0.234375 1.304688 -0.265625 1.390625 -0.328125 C 1.484375 -0.390625 1.550781 -0.472656 1.59375 -0.578125 L 1.921875 -0.578125 C 1.867188 -0.398438 1.765625 -0.253906 1.609375 -0.140625 C 1.460938 -0.0234375 1.28125 0.03125 1.0625 0.03125 C 0.882812 0.03125 0.726562 -0.00390625 0.59375 -0.078125 C 0.457031 -0.160156 0.347656 -0.273438 0.265625 -0.421875 C 0.179688 -0.566406 0.140625 -0.738281 0.140625 -0.9375 C 0.140625 -1.125 0.175781 -1.289062 0.25 -1.4375 C 0.332031 -1.582031 0.441406 -1.691406 0.578125 -1.765625 C 0.722656 -1.847656 0.882812 -1.890625 1.0625 -1.890625 C 1.238281 -1.890625 1.394531 -1.847656 1.53125 -1.765625 C 1.664062 -1.691406 1.769531 -1.585938 1.84375 -1.453125 C 1.914062 -1.316406 1.953125 -1.164062 1.953125 -1 Z M 1.640625 -1.0625 C 1.640625 -1.175781 1.613281 -1.273438 1.5625 -1.359375 C 1.507812 -1.453125 1.4375 -1.519531 1.34375 -1.5625 C 1.257812 -1.601562 1.160156 -1.625 1.046875 -1.625 C 0.890625 -1.625 0.753906 -1.570312 0.640625 -1.46875 C 0.535156 -1.375 0.476562 -1.238281 0.46875 -1.0625 Z M 1.640625 -1.0625 "/></g></g></g><g fill="#000000" fill-opacity="1"><g transform="translate(40.385209, 15.362906)"><g><path d="M 0.421875 -2.15625 C 0.359375 -2.15625 0.304688 -2.175781 0.265625 -2.21875 C 0.222656 -2.257812 0.203125 -2.3125 0.203125 -2.375 C 0.203125 -2.425781 0.222656 -2.472656 0.265625 -2.515625 C 0.304688 -2.554688 0.359375 -2.578125 0.421875 -2.578125 C 0.472656 -2.578125 0.519531 -2.554688 0.5625 -2.515625 C 0.601562 -2.472656 0.625 -2.425781 0.625 -2.375 C 0.625 -2.3125 0.601562 -2.257812 0.5625 -2.21875 C 0.519531 -2.175781 0.472656 -2.15625 0.421875 -2.15625 Z M 0.5625 -1.859375 L 0.5625 0 L 0.265625 0 L 0.265625 -1.859375 Z M 0.5625 -1.859375 "/></g></g></g><g fill="#000000" fill-opacity="1"><g transform="translate(41.218442, 15.362906)"><g><path d="M 0.5625 -1.5625 C 0.625 -1.664062 0.703125 -1.742188 0.796875 -1.796875 C 0.898438 -1.859375 1.023438 -1.890625 1.171875 -1.890625 L 1.171875 -1.578125 L 1.09375 -1.578125 C 0.738281 -1.578125 0.5625 -1.390625 0.5625 -1.015625 L 0.5625 0 L 0.265625 0 L 0.265625 -1.859375 L 0.5625 -1.859375 Z M 0.5625 -1.5625 "/></g></g></g><g fill="#000000" fill-opacity="1"><g transform="translate(42.481838, 15.362906)"><g><path d="M 0.140625 -0.9375 C 0.140625 -1.125 0.175781 -1.289062 0.25 -1.4375 C 0.332031 -1.582031 0.441406 -1.691406 0.578125 -1.765625 C 0.710938 -1.847656 0.863281 -1.890625 1.03125 -1.890625 C 1.1875 -1.890625 1.320312 -1.851562 1.4375 -1.78125 C 1.5625 -1.707031 1.65625 -1.617188 1.71875 -1.515625 L 1.71875 -1.859375 L 2.03125 -1.859375 L 2.03125 0 L 1.71875 0 L 1.71875 -0.34375 C 1.65625 -0.238281 1.5625 -0.148438 1.4375 -0.078125 C 1.320312 -0.00390625 1.1875 0.03125 1.03125 0.03125 C 0.863281 0.03125 0.710938 -0.0078125 0.578125 -0.09375 C 0.441406 -0.175781 0.332031 -0.289062 0.25 -0.4375 C 0.175781 -0.582031 0.140625 -0.75 0.140625 -0.9375 Z M 1.71875 -0.9375 C 1.71875 -1.070312 1.6875 -1.191406 1.625 -1.296875 C 1.570312 -1.398438 1.5 -1.476562 1.40625 -1.53125 C 1.3125 -1.59375 1.207031 -1.625 1.09375 -1.625 C 0.976562 -1.625 0.867188 -1.59375 0.765625 -1.53125 C 0.671875 -1.476562 0.597656 -1.398438 0.546875 -1.296875 C 0.492188 -1.191406 0.46875 -1.070312 0.46875 -0.9375 C 0.46875 -0.789062 0.492188 -0.664062 0.546875 -0.5625 C 0.597656 -0.457031 0.671875 -0.375 0.765625 -0.3125 C 0.867188 -0.257812 0.976562 -0.234375 1.09375 -0.234375 C 1.207031 -0.234375 1.3125 -0.257812 1.40625 -0.3125 C 1.5 -0.375 1.570312 -0.457031 1.625 -0.5625 C 1.6875 -0.664062 1.71875 -0.789062 1.71875 -0.9375 Z M 1.71875 -0.9375 "/></g></g></g><g fill="#000000" fill-opacity="1"><g transform="translate(44.771534, 15.362906)"><g/></g></g><g fill="#000000" fill-opacity="1"><g transform="translate(45.675896, 15.362906)"><g><path d="M 1.109375 -0.46875 L 0.28125 -1.234375 L 1.109375 -2.015625 L 1.484375 -2.015625 L 0.671875 -1.234375 L 1.484375 -0.46875 Z M 1.109375 -0.46875 "/></g></g></g><g fill="#000000" fill-opacity="1"><g transform="translate(47.55575, 15.362906)"><g><path d="M 1.40625 -3.1875 L 0.484375 0.578125 L 0.1875 0.578125 L 1.109375 -3.1875 Z M 1.40625 -3.1875 "/></g></g></g><g fill="#000000" fill-opacity="1"><g transform="translate(49.168019, 15.362906)"><g><path d="M 0.3125 -2.015625 L 0.703125 -2.015625 L 1.53125 -1.234375 L 0.703125 -0.46875 L 0.3125 -0.46875 L 1.140625 -1.234375 Z M 0.3125 -2.015625 "/></g></g></g></svg>