<svg xmlns="http://www.w3.org/2000/svg" xmlns:xlink="http://www.w3.org/1999/xlink" width="800" zoomAndPan="magnify" viewBox="0 0 600 599.999999" height="800" preserveAspectRatio="xMidYMid meet" version="1.0"><defs><g/></defs><g fill="#000000" fill-opacity="1"><g transform="translate(83.097653, 325.450026)"><g><path d="M 11.375 -4.765625 L 2.9375 -12.8125 L 11.375 -20.828125 L 15.40625 -20.828125 L 6.9375 -12.8125 L 15.40625 -4.765625 Z M 11.375 -4.765625 "/></g></g></g><g fill="#000000" fill-opacity="1"><g transform="translate(102.518265, 325.450026)"><g/></g></g><g fill="#000000" fill-opacity="1"><g transform="translate(111.861152, 325.450026)"><g><path d="M 3.296875 -20.828125 L 7.3125 -20.828125 L 15.78125 -12.8125 L 7.3125 -4.765625 L 3.296875 -4.765625 L 11.765625 -12.8125 Z M 3.296875 -20.828125 "/></g></g></g><g fill="#000000" fill-opacity="1"><g transform="translate(130.721896, 325.450026)"><g><path d="M 21.171875 -17.328125 C 20.492188 -18.742188 19.515625 -19.84375 18.234375 -20.625 C 16.953125 -21.414062 15.457031 -21.8125 13.75 -21.8125 C 12.050781 -21.8125 10.519531 -21.414062 9.15625 -20.625 C 7.789062 -19.84375 6.71875 -18.722656 5.9375 -17.265625 C 5.15625 -15.804688 4.765625 -14.125 4.765625 -12.21875 C 4.765625 -10.300781 5.15625 -8.617188 5.9375 -7.171875 C 6.71875 -5.722656 7.789062 -4.609375 9.15625 -3.828125 C 10.519531 -3.046875 12.050781 -2.65625 13.75 -2.65625 C 16.132812 -2.65625 18.09375 -3.367188 19.625 -4.796875 C 21.164062 -6.222656 22.066406 -8.144531 22.328125 -10.5625 L 12.59375 -10.5625 L 12.59375 -13.15625 L 25.71875 -13.15625 L 25.71875 -10.703125 C 25.53125 -8.703125 24.898438 -6.863281 23.828125 -5.1875 C 22.753906 -3.519531 21.34375 -2.203125 19.59375 -1.234375 C 17.84375 -0.273438 15.894531 0.203125 13.75 0.203125 C 11.488281 0.203125 9.425781 -0.320312 7.5625 -1.375 C 5.695312 -2.4375 4.21875 -3.910156 3.125 -5.796875 C 2.039062 -7.691406 1.5 -9.832031 1.5 -12.21875 C 1.5 -14.59375 2.039062 -16.726562 3.125 -18.625 C 4.21875 -20.53125 5.695312 -22.015625 7.5625 -23.078125 C 9.425781 -24.140625 11.488281 -24.671875 13.75 -24.671875 C 16.34375 -24.671875 18.632812 -24.03125 20.625 -22.75 C 22.625 -21.46875 24.078125 -19.660156 24.984375 -17.328125 Z M 21.171875 -17.328125 "/></g></g></g><g fill="#000000" fill-opacity="1"><g transform="translate(157.945752, 325.450026)"><g><path d="M 1.5 -9.65625 C 1.5 -11.613281 1.894531 -13.332031 2.6875 -14.8125 C 3.488281 -16.300781 4.582031 -17.453125 5.96875 -18.265625 C 7.351562 -19.085938 8.898438 -19.5 10.609375 -19.5 C 12.285156 -19.5 13.738281 -19.132812 14.96875 -18.40625 C 16.207031 -17.6875 17.132812 -16.78125 17.75 -15.6875 L 17.75 -19.1875 L 20.96875 -19.1875 L 20.96875 0 L 17.75 0 L 17.75 -3.5625 C 17.113281 -2.445312 16.171875 -1.519531 14.921875 -0.78125 C 13.679688 -0.0507812 12.226562 0.3125 10.5625 0.3125 C 8.863281 0.3125 7.328125 -0.101562 5.953125 -0.9375 C 4.578125 -1.78125 3.488281 -2.957031 2.6875 -4.46875 C 1.894531 -5.988281 1.5 -7.71875 1.5 -9.65625 Z M 17.75 -9.625 C 17.75 -11.070312 17.457031 -12.332031 16.875 -13.40625 C 16.289062 -14.476562 15.5 -15.300781 14.5 -15.875 C 13.507812 -16.445312 12.421875 -16.734375 11.234375 -16.734375 C 10.046875 -16.734375 8.960938 -16.453125 7.984375 -15.890625 C 7.003906 -15.328125 6.222656 -14.507812 5.640625 -13.4375 C 5.054688 -12.363281 4.765625 -11.101562 4.765625 -9.65625 C 4.765625 -8.1875 5.054688 -6.910156 5.640625 -5.828125 C 6.222656 -4.742188 7.003906 -3.914062 7.984375 -3.34375 C 8.960938 -2.769531 10.046875 -2.484375 11.234375 -2.484375 C 12.421875 -2.484375 13.507812 -2.769531 14.5 -3.34375 C 15.5 -3.914062 16.289062 -4.742188 16.875 -5.828125 C 17.457031 -6.910156 17.75 -8.175781 17.75 -9.625 Z M 17.75 -9.625 "/></g></g></g><g fill="#000000" fill-opacity="1"><g transform="translate(181.600414, 325.450026)"><g><path d="M 5.875 -15.609375 C 6.53125 -16.753906 7.488281 -17.6875 8.75 -18.40625 C 10.007812 -19.132812 11.445312 -19.5 13.0625 -19.5 C 14.78125 -19.5 16.328125 -19.085938 17.703125 -18.265625 C 19.085938 -17.453125 20.175781 -16.300781 20.96875 -14.8125 C 21.757812 -13.332031 22.15625 -11.613281 22.15625 -9.65625 C 22.15625 -7.71875 21.757812 -5.988281 20.96875 -4.46875 C 20.175781 -2.957031 19.082031 -1.78125 17.6875 -0.9375 C 16.300781 -0.101562 14.757812 0.3125 13.0625 0.3125 C 11.394531 0.3125 9.9375 -0.046875 8.6875 -0.765625 C 7.445312 -1.492188 6.507812 -2.414062 5.875 -3.53125 L 5.875 0 L 2.6875 0 L 2.6875 -25.90625 L 5.875 -25.90625 Z M 18.90625 -9.65625 C 18.90625 -11.101562 18.613281 -12.363281 18.03125 -13.4375 C 17.445312 -14.507812 16.65625 -15.328125 15.65625 -15.890625 C 14.664062 -16.453125 13.578125 -16.734375 12.390625 -16.734375 C 11.222656 -16.734375 10.144531 -16.445312 9.15625 -15.875 C 8.164062 -15.300781 7.367188 -14.472656 6.765625 -13.390625 C 6.171875 -12.304688 5.875 -11.050781 5.875 -9.625 C 5.875 -8.175781 6.171875 -6.910156 6.765625 -5.828125 C 7.367188 -4.742188 8.164062 -3.914062 9.15625 -3.34375 C 10.144531 -2.769531 11.222656 -2.484375 12.390625 -2.484375 C 13.578125 -2.484375 14.664062 -2.769531 15.65625 -3.34375 C 16.65625 -3.914062 17.445312 -4.742188 18.03125 -5.828125 C 18.613281 -6.910156 18.90625 -8.1875 18.90625 -9.65625 Z M 18.90625 -9.65625 "/></g></g></g><g fill="#000000" fill-opacity="1"><g transform="translate(205.255077, 325.450026)"><g><path d="M 5.875 -16.0625 C 6.4375 -17.15625 7.234375 -18.003906 8.265625 -18.609375 C 9.304688 -19.222656 10.578125 -19.53125 12.078125 -19.53125 L 12.078125 -16.234375 L 11.234375 -16.234375 C 7.660156 -16.234375 5.875 -14.300781 5.875 -10.4375 L 5.875 0 L 2.6875 0 L 2.6875 -19.1875 L 5.875 -19.1875 Z M 5.875 -16.0625 "/></g></g></g><g fill="#000000" fill-opacity="1"><g transform="translate(218.307131, 325.450026)"><g><path d="M 4.34375 -22.296875 C 3.738281 -22.296875 3.222656 -22.503906 2.796875 -22.921875 C 2.378906 -23.347656 2.171875 -23.863281 2.171875 -24.46875 C 2.171875 -25.070312 2.378906 -25.582031 2.796875 -26 C 3.222656 -26.425781 3.738281 -26.640625 4.34375 -26.640625 C 4.925781 -26.640625 5.421875 -26.425781 5.828125 -26 C 6.234375 -25.582031 6.4375 -25.070312 6.4375 -24.46875 C 6.4375 -23.863281 6.234375 -23.347656 5.828125 -22.921875 C 5.421875 -22.503906 4.925781 -22.296875 4.34375 -22.296875 Z M 5.875 -19.1875 L 5.875 0 L 2.6875 0 L 2.6875 -19.1875 Z M 5.875 -19.1875 "/></g></g></g><g fill="#000000" fill-opacity="1"><g transform="translate(226.915182, 325.450026)"><g><path d="M 20.1875 -10.328125 C 20.1875 -9.722656 20.15625 -9.082031 20.09375 -8.40625 L 4.765625 -8.40625 C 4.878906 -6.507812 5.523438 -5.03125 6.703125 -3.96875 C 7.878906 -2.90625 9.304688 -2.375 10.984375 -2.375 C 12.367188 -2.375 13.519531 -2.695312 14.4375 -3.34375 C 15.351562 -3.988281 16 -4.847656 16.375 -5.921875 L 19.8125 -5.921875 C 19.300781 -4.078125 18.273438 -2.578125 16.734375 -1.421875 C 15.191406 -0.265625 13.273438 0.3125 10.984375 0.3125 C 9.171875 0.3125 7.546875 -0.09375 6.109375 -0.90625 C 4.671875 -1.726562 3.539062 -2.890625 2.71875 -4.390625 C 1.90625 -5.898438 1.5 -7.644531 1.5 -9.625 C 1.5 -11.601562 1.894531 -13.335938 2.6875 -14.828125 C 3.488281 -16.328125 4.601562 -17.476562 6.03125 -18.28125 C 7.46875 -19.09375 9.117188 -19.5 10.984375 -19.5 C 12.804688 -19.5 14.414062 -19.097656 15.8125 -18.296875 C 17.21875 -17.503906 18.296875 -16.414062 19.046875 -15.03125 C 19.804688 -13.644531 20.1875 -12.078125 20.1875 -10.328125 Z M 16.90625 -10.984375 C 16.90625 -12.203125 16.632812 -13.25 16.09375 -14.125 C 15.5625 -15 14.832031 -15.660156 13.90625 -16.109375 C 12.988281 -16.566406 11.96875 -16.796875 10.84375 -16.796875 C 9.238281 -16.796875 7.867188 -16.28125 6.734375 -15.25 C 5.609375 -14.226562 4.960938 -12.804688 4.796875 -10.984375 Z M 16.90625 -10.984375 "/></g></g></g><g fill="#000000" fill-opacity="1"><g transform="translate(248.610284, 325.450026)"><g><path d="M 5.875 -25.90625 L 5.875 0 L 2.6875 0 L 2.6875 -25.90625 Z M 5.875 -25.90625 "/></g></g></g><g fill="#000000" fill-opacity="1"><g transform="translate(257.218335, 325.450026)"><g/></g></g><g fill="#000000" fill-opacity="1"><g transform="translate(266.561222, 325.450026)"><g><path d="M 1.5 -9.65625 C 1.5 -11.613281 1.894531 -13.332031 2.6875 -14.8125 C 3.488281 -16.300781 4.582031 -17.453125 5.96875 -18.265625 C 7.351562 -19.085938 8.910156 -19.5 10.640625 -19.5 C 12.128906 -19.5 13.515625 -19.15625 14.796875 -18.46875 C 16.085938 -17.78125 17.070312 -16.875 17.75 -15.75 L 17.75 -25.90625 L 20.96875 -25.90625 L 20.96875 0 L 17.75 0 L 17.75 -3.609375 C 17.113281 -2.460938 16.175781 -1.519531 14.9375 -0.78125 C 13.707031 -0.0507812 12.265625 0.3125 10.609375 0.3125 C 8.898438 0.3125 7.351562 -0.101562 5.96875 -0.9375 C 4.582031 -1.78125 3.488281 -2.957031 2.6875 -4.46875 C 1.894531 -5.988281 1.5 -7.71875 1.5 -9.65625 Z M 17.75 -9.625 C 17.75 -11.070312 17.457031 -12.332031 16.875 -13.40625 C 16.289062 -14.476562 15.5 -15.300781 14.5 -15.875 C 13.507812 -16.445312 12.421875 -16.734375 11.234375 -16.734375 C 10.046875 -16.734375 8.960938 -16.453125 7.984375 -15.890625 C 7.003906 -15.328125 6.222656 -14.507812 5.640625 -13.4375 C 5.054688 -12.363281 4.765625 -11.101562 4.765625 -9.65625 C 4.765625 -8.1875 5.054688 -6.910156 5.640625 -5.828125 C 6.222656 -4.742188 7.003906 -3.914062 7.984375 -3.34375 C 8.960938 -2.769531 10.046875 -2.484375 11.234375 -2.484375 C 12.421875 -2.484375 13.507812 -2.769531 14.5 -3.34375 C 15.5 -3.914062 16.289062 -4.742188 16.875 -5.828125 C 17.457031 -6.910156 17.75 -8.175781 17.75 -9.625 Z M 17.75 -9.625 "/></g></g></g><g fill="#000000" fill-opacity="1"><g transform="translate(290.215885, 325.450026)"><g><path d="M 20.1875 -10.328125 C 20.1875 -9.722656 20.15625 -9.082031 20.09375 -8.40625 L 4.765625 -8.40625 C 4.878906 -6.507812 5.523438 -5.03125 6.703125 -3.96875 C 7.878906 -2.90625 9.304688 -2.375 10.984375 -2.375 C 12.367188 -2.375 13.519531 -2.695312 14.4375 -3.34375 C 15.351562 -3.988281 16 -4.847656 16.375 -5.921875 L 19.8125 -5.921875 C 19.300781 -4.078125 18.273438 -2.578125 16.734375 -1.421875 C 15.191406 -0.265625 13.273438 0.3125 10.984375 0.3125 C 9.171875 0.3125 7.546875 -0.09375 6.109375 -0.90625 C 4.671875 -1.726562 3.539062 -2.890625 2.71875 -4.390625 C 1.90625 -5.898438 1.5 -7.644531 1.5 -9.625 C 1.5 -11.601562 1.894531 -13.335938 2.6875 -14.828125 C 3.488281 -16.328125 4.601562 -17.476562 6.03125 -18.28125 C 7.46875 -19.09375 9.117188 -19.5 10.984375 -19.5 C 12.804688 -19.5 14.414062 -19.097656 15.8125 -18.296875 C 17.21875 -17.503906 18.296875 -16.414062 19.046875 -15.03125 C 19.804688 -13.644531 20.1875 -12.078125 20.1875 -10.328125 Z M 16.90625 -10.984375 C 16.90625 -12.203125 16.632812 -13.25 16.09375 -14.125 C 15.5625 -15 14.832031 -15.660156 13.90625 -16.109375 C 12.988281 -16.566406 11.96875 -16.796875 10.84375 -16.796875 C 9.238281 -16.796875 7.867188 -16.28125 6.734375 -15.25 C 5.609375 -14.226562 4.960938 -12.804688 4.796875 -10.984375 Z M 16.90625 -10.984375 "/></g></g></g><g fill="#000000" fill-opacity="1"><g transform="translate(311.910998, 325.450026)"><g/></g></g><g fill="#000000" fill-opacity="1"><g transform="translate(321.253885, 325.450026)"><g><path d="M 13.75 0.25 C 11.488281 0.25 9.425781 -0.28125 7.5625 -1.34375 C 5.695312 -2.40625 4.21875 -3.882812 3.125 -5.78125 C 2.039062 -7.6875 1.5 -9.832031 1.5 -12.21875 C 1.5 -14.59375 2.039062 -16.726562 3.125 -18.625 C 4.21875 -20.53125 5.695312 -22.015625 7.5625 -23.078125 C 9.425781 -24.140625 11.488281 -24.671875 13.75 -24.671875 C 16.039062 -24.671875 18.117188 -24.140625 19.984375 -23.078125 C 21.847656 -22.015625 23.316406 -20.535156 24.390625 -18.640625 C 25.460938 -16.753906 26 -14.613281 26 -12.21875 C 26 -9.8125 25.460938 -7.660156 24.390625 -5.765625 C 23.316406 -3.878906 21.847656 -2.40625 19.984375 -1.34375 C 18.117188 -0.28125 16.039062 0.25 13.75 0.25 Z M 13.75 -2.515625 C 15.457031 -2.515625 16.992188 -2.910156 18.359375 -3.703125 C 19.722656 -4.503906 20.796875 -5.640625 21.578125 -7.109375 C 22.359375 -8.578125 22.75 -10.28125 22.75 -12.21875 C 22.75 -14.175781 22.359375 -15.882812 21.578125 -17.34375 C 20.796875 -18.800781 19.726562 -19.925781 18.375 -20.71875 C 17.019531 -21.507812 15.476562 -21.90625 13.75 -21.90625 C 12.03125 -21.90625 10.492188 -21.507812 9.140625 -20.71875 C 7.785156 -19.925781 6.71875 -18.800781 5.9375 -17.34375 C 5.15625 -15.882812 4.765625 -14.175781 4.765625 -12.21875 C 4.765625 -10.28125 5.15625 -8.578125 5.9375 -7.109375 C 6.71875 -5.640625 7.789062 -4.503906 9.15625 -3.703125 C 10.519531 -2.910156 12.050781 -2.515625 13.75 -2.515625 Z M 13.75 -2.515625 "/></g></g></g><g fill="#000000" fill-opacity="1"><g transform="translate(348.757676, 325.450026)"><g><path d="M 5.875 -25.90625 L 5.875 0 L 2.6875 0 L 2.6875 -25.90625 Z M 5.875 -25.90625 "/></g></g></g><g fill="#000000" fill-opacity="1"><g transform="translate(357.365738, 325.450026)"><g><path d="M 4.34375 -22.296875 C 3.738281 -22.296875 3.222656 -22.503906 2.796875 -22.921875 C 2.378906 -23.347656 2.171875 -23.863281 2.171875 -24.46875 C 2.171875 -25.070312 2.378906 -25.582031 2.796875 -26 C 3.222656 -26.425781 3.738281 -26.640625 4.34375 -26.640625 C 4.925781 -26.640625 5.421875 -26.425781 5.828125 -26 C 6.234375 -25.582031 6.4375 -25.070312 6.4375 -24.46875 C 6.4375 -23.863281 6.234375 -23.347656 5.828125 -22.921875 C 5.421875 -22.503906 4.925781 -22.296875 4.34375 -22.296875 Z M 5.875 -19.1875 L 5.875 0 L 2.6875 0 L 2.6875 -19.1875 Z M 5.875 -19.1875 "/></g></g></g><g fill="#000000" fill-opacity="1"><g transform="translate(365.973801, 325.450026)"><g><path d="M 9.828125 -2.9375 L 15.78125 -19.1875 L 19.1875 -19.1875 L 11.65625 0 L 7.9375 0 L 0.421875 -19.1875 L 3.84375 -19.1875 Z M 9.828125 -2.9375 "/></g></g></g><g fill="#000000" fill-opacity="1"><g transform="translate(385.604354, 325.450026)"><g><path d="M 20.1875 -10.328125 C 20.1875 -9.722656 20.15625 -9.082031 20.09375 -8.40625 L 4.765625 -8.40625 C 4.878906 -6.507812 5.523438 -5.03125 6.703125 -3.96875 C 7.878906 -2.90625 9.304688 -2.375 10.984375 -2.375 C 12.367188 -2.375 13.519531 -2.695312 14.4375 -3.34375 C 15.351562 -3.988281 16 -4.847656 16.375 -5.921875 L 19.8125 -5.921875 C 19.300781 -4.078125 18.273438 -2.578125 16.734375 -1.421875 C 15.191406 -0.265625 13.273438 0.3125 10.984375 0.3125 C 9.171875 0.3125 7.546875 -0.09375 6.109375 -0.90625 C 4.671875 -1.726562 3.539062 -2.890625 2.71875 -4.390625 C 1.90625 -5.898438 1.5 -7.644531 1.5 -9.625 C 1.5 -11.601562 1.894531 -13.335938 2.6875 -14.828125 C 3.488281 -16.328125 4.601562 -17.476562 6.03125 -18.28125 C 7.46875 -19.09375 9.117188 -19.5 10.984375 -19.5 C 12.804688 -19.5 14.414062 -19.097656 15.8125 -18.296875 C 17.21875 -17.503906 18.296875 -16.414062 19.046875 -15.03125 C 19.804688 -13.644531 20.1875 -12.078125 20.1875 -10.328125 Z M 16.90625 -10.984375 C 16.90625 -12.203125 16.632812 -13.25 16.09375 -14.125 C 15.5625 -15 14.832031 -15.660156 13.90625 -16.109375 C 12.988281 -16.566406 11.96875 -16.796875 10.84375 -16.796875 C 9.238281 -16.796875 7.867188 -16.28125 6.734375 -15.25 C 5.609375 -14.226562 4.960938 -12.804688 4.796875 -10.984375 Z M 16.90625 -10.984375 "/></g></g></g><g fill="#000000" fill-opacity="1"><g transform="translate(407.299467, 325.450026)"><g><path d="M 4.34375 -22.296875 C 3.738281 -22.296875 3.222656 -22.503906 2.796875 -22.921875 C 2.378906 -23.347656 2.171875 -23.863281 2.171875 -24.46875 C 2.171875 -25.070312 2.378906 -25.582031 2.796875 -26 C 3.222656 -26.425781 3.738281 -26.640625 4.34375 -26.640625 C 4.925781 -26.640625 5.421875 -26.425781 5.828125 -26 C 6.234375 -25.582031 6.4375 -25.070312 6.4375 -24.46875 C 6.4375 -23.863281 6.234375 -23.347656 5.828125 -22.921875 C 5.421875 -22.503906 4.925781 -22.296875 4.34375 -22.296875 Z M 5.875 -19.1875 L 5.875 0 L 2.6875 0 L 2.6875 -19.1875 Z M 5.875 -19.1875 "/></g></g></g><g fill="#000000" fill-opacity="1"><g transform="translate(415.907529, 325.450026)"><g><path d="M 5.875 -16.0625 C 6.4375 -17.15625 7.234375 -18.003906 8.265625 -18.609375 C 9.304688 -19.222656 10.578125 -19.53125 12.078125 -19.53125 L 12.078125 -16.234375 L 11.234375 -16.234375 C 7.660156 -16.234375 5.875 -14.300781 5.875 -10.4375 L 5.875 0 L 2.6875 0 L 2.6875 -19.1875 L 5.875 -19.1875 Z M 5.875 -16.0625 "/></g></g></g><g fill="#000000" fill-opacity="1"><g transform="translate(428.959584, 325.450026)"><g><path d="M 1.5 -9.65625 C 1.5 -11.613281 1.894531 -13.332031 2.6875 -14.8125 C 3.488281 -16.300781 4.582031 -17.453125 5.96875 -18.265625 C 7.351562 -19.085938 8.898438 -19.5 10.609375 -19.5 C 12.285156 -19.5 13.738281 -19.132812 14.96875 -18.40625 C 16.207031 -17.6875 17.132812 -16.78125 17.75 -15.6875 L 17.75 -19.1875 L 20.96875 -19.1875 L 20.96875 0 L 17.75 0 L 17.75 -3.5625 C 17.113281 -2.445312 16.171875 -1.519531 14.921875 -0.78125 C 13.679688 -0.0507812 12.226562 0.3125 10.5625 0.3125 C 8.863281 0.3125 7.328125 -0.101562 5.953125 -0.9375 C 4.578125 -1.78125 3.488281 -2.957031 2.6875 -4.46875 C 1.894531 -5.988281 1.5 -7.71875 1.5 -9.65625 Z M 17.75 -9.625 C 17.75 -11.070312 17.457031 -12.332031 16.875 -13.40625 C 16.289062 -14.476562 15.5 -15.300781 14.5 -15.875 C 13.507812 -16.445312 12.421875 -16.734375 11.234375 -16.734375 C 10.046875 -16.734375 8.960938 -16.453125 7.984375 -15.890625 C 7.003906 -15.328125 6.222656 -14.507812 5.640625 -13.4375 C 5.054688 -12.363281 4.765625 -11.101562 4.765625 -9.65625 C 4.765625 -8.1875 5.054688 -6.910156 5.640625 -5.828125 C 6.222656 -4.742188 7.003906 -3.914062 7.984375 -3.34375 C 8.960938 -2.769531 10.046875 -2.484375 11.234375 -2.484375 C 12.421875 -2.484375 13.507812 -2.769531 14.5 -3.34375 C 15.5 -3.914062 16.289062 -4.742188 16.875 -5.828125 C 17.457031 -6.910156 17.75 -8.175781 17.75 -9.625 Z M 17.75 -9.625 "/></g></g></g><g fill="#000000" fill-opacity="1"><g transform="translate(452.614246, 325.450026)"><g/></g></g><g fill="#000000" fill-opacity="1"><g transform="translate(461.957134, 325.450026)"><g><path d="M 11.375 -4.765625 L 2.9375 -12.8125 L 11.375 -20.828125 L 15.40625 -20.828125 L 6.9375 -12.8125 L 15.40625 -4.765625 Z M 11.375 -4.765625 "/></g></g></g><g fill="#000000" fill-opacity="1"><g transform="translate(481.377756, 325.450026)"><g><path d="M 14.59375 -32.96875 L 5 5.953125 L 1.859375 5.953125 L 11.40625 -32.96875 Z M 14.59375 -32.96875 "/></g></g></g><g fill="#000000" fill-opacity="1"><g transform="translate(498.033991, 325.450026)"><g><path d="M 3.296875 -20.828125 L 7.3125 -20.828125 L 15.78125 -12.8125 L 7.3125 -4.765625 L 3.296875 -4.765625 L 11.765625 -12.8125 Z M 3.296875 -20.828125 "/></g></g></g></svg>